<svg id="Layer_1" data-name="Layer 1" xmlns="http://www.w3.org/2000/svg" viewBox="0 0 590 152.7"><title>logo</title><path d="M187.9,78.9l11.7-11c3.2,3.8,6.2,6,10.3,6s7.4-3,7.4-9.1V23.2h18.1V64.9c0,8.2-2,14-6.4,18.4S218.5,90,211,90C199.5,90,192.5,85.2,187.9,78.9Z" style="fill:#243147"/><path d="M241.2,79.1,251.4,67a33.2,33.2,0,0,0,21.2,7.9c4.9,0,7.5-1.7,7.5-4.5v-.2c0-2.7-2.1-4.2-11-6.3-14-3.2-24.8-7.1-24.8-20.6v-.2c0-12.2,9.7-21,25.4-21,11.2,0,19.9,3,27,8.7l-9.1,12.9c-6-4.2-12.5-6.5-18.3-6.5s-6.6,1.9-6.6,4.2v.2c0,3,2.2,4.3,11.3,6.4,15.1,3.3,24.5,8.1,24.5,20.4v.2C298.5,82,287.9,90,272,90,260.4,90,249.3,86.3,241.2,79.1Z" style="fill:#243147"/><path d="M305.1,56.2V56c0-19.1,14.7-34.1,34.5-34.1,13.4,0,22.1,5.7,27.9,13.7L353.8,46.2c-3.8-4.7-8.1-7.7-14.4-7.7-9.1,0-15.6,7.8-15.6,17.4h0c0,9.9,6.5,17.6,15.6,17.6,6.9,0,10.9-3.2,14.9-8l13.6,9.8c-6.1,8.5-14.5,14.8-29,14.8C320.1,90.2,305.1,75.8,305.1,56.2Z" style="fill:#243147"/><path d="M397.8,22.8h17.6l27.9,66.1H423.8L419,77.1H393.7L389,88.9H369.9Zm16,40.2-7.3-18.7L399,63Z" style="fill:#243147"/><path d="M449.7,23.2h19.2l15.6,25.4,15.7-25.4h19.2V88.9H501.3V51.2L484.5,76.9h-.4L467.5,51.4V88.9H449.7Z" style="fill:#243147"/><path d="M531,23.2h28.1c16.6,0,27.3,8.6,27.3,23.1v.2c0,15.5-11.9,23.6-28.2,23.6h-9V88.9H531Zm26.8,32.7c6.5,0,10.4-3.4,10.4-8.6v-.2c0-5.6-3.9-8.6-10.5-8.6h-8.5V55.9Z" style="fill:#243147"/><path d="M5.2,44.1a2.4,2.4,0,0,0,2.9,1.1l8.6-2.5L19,51.8a2.4,2.4,0,0,0,2.4,1.9,2.6,2.6,0,0,0,2.4-1.9L26,42.7l8.7,2.5a2.3,2.3,0,0,0,2.8-1.1,2.4,2.4,0,0,0-.3-3l-6.6-6.7,6.6-6.6a2.5,2.5,0,0,0-2.5-4.2L26,26.2,23.8,17a2.6,2.6,0,0,0-2.4-1.9A2.4,2.4,0,0,0,19,17l-2.3,9.2L8.1,23.6a2.7,2.7,0,0,0-2.9,1.1,2.7,2.7,0,0,0,.4,3.1l6.6,6.6L5.6,41.1A2.6,2.6,0,0,0,5.2,44.1Zm10.5-9.7L7.4,26l11.2,3.3,2.8-11.7,2.8,11.7L35.4,26,27,34.4l8.4,8.4L24.2,39.5,21.4,51.2,18.6,39.5,7.4,42.8Z" style="fill:#ed2024"/><polygon points="21.4 51.2 24.2 39.5 35.4 42.8 27 34.4 35.4 26 24.2 29.3 21.4 17.6 18.6 29.3 7.4 26 15.7 34.4 7.4 42.8 18.6 39.5 21.4 51.2" style="fill:#ed2024"/><path d="M187.9,127.1h0c0-11.1,8.6-19.8,20.1-19.8,7.8,0,12.8,3.3,16.2,7.9l-8,6.2c-2.1-2.7-4.7-4.5-8.3-4.5-5.3,0-9.1,4.5-9.1,10.1h0c0,5.7,3.8,10.2,9.1,10.2s6.3-1.9,8.6-4.6l7.9,5.6c-3.5,5-8.4,8.6-16.8,8.6A19.4,19.4,0,0,1,187.9,127.1Z" style="fill:#76cbe4"/><path d="M227.9,108h10.5v14.2H252V108h10.5v38H252V131.6H238.4V146H227.9Z" style="fill:#76cbe4"/><path d="M269,108h10.6v38H269Z" style="fill:#76cbe4"/><path d="M284.4,127.1h0c0-11.1,8.5-19.8,20.1-19.8,7.8,0,12.8,3.3,16.1,7.9l-7.9,6.2c-2.2-2.7-4.7-4.5-8.3-4.5-5.4,0-9.1,4.5-9.1,10.1h0c0,5.7,3.7,10.2,9.1,10.2s6.3-1.9,8.6-4.6l7.9,5.6c-3.6,5-8.4,8.6-16.9,8.6A19.3,19.3,0,0,1,284.4,127.1Z" style="fill:#76cbe4"/><path d="M337.1,107.7h10.2L363.5,146H352.2l-2.8-6.8H334.7L332,146H320.9Zm9.2,23.3-4.2-10.8L337.8,131Z" style="fill:#76cbe4"/><path d="M362.5,127.1h0c0-11.1,8.7-19.8,20.5-19.8a22.4,22.4,0,0,1,15.5,5.6l-6.2,7.4a13.5,13.5,0,0,0-9.2-3.6c-5.5,0-9.8,4.6-9.8,10.5h0c0,6.1,4.3,10.5,10.4,10.5a10.5,10.5,0,0,0,6.1-1.6v-4.6h-7.5v-7.7h17.5v17.1a25.8,25.8,0,0,1-16.6,5.9C371.4,146.8,362.5,138.6,362.5,127.1Z" style="fill:#76cbe4"/><path d="M403.4,127.1h0c0-10.9,8.8-19.8,20.6-19.8s20.4,8.8,20.4,19.7h0c0,10.9-8.8,19.8-20.5,19.8S403.4,138,403.4,127.1Zm30.2,0h0c0-5.5-3.9-10.3-9.7-10.3s-9.7,4.7-9.7,10.2h0c0,5.5,4,10.3,9.8,10.3S433.6,132.6,433.6,127.1Z" style="fill:#76cbe4"/><path d="M491.9,135.7v9.6H462v-7.9l13.4-13.7c1.5-1.7,2.8-3.6,2.8-4.9s-.9-2-2.6-2-6.7,1.9-10.3,4.9l-4.7-9.1c5.4-3.7,11-5.9,17-5.9,7.9,0,13.8,4.1,13.8,10.3,0,4.4-3.2,8.6-7.5,12.8l-5.8,5.9Z" style="fill:#76cbe4"/><path d="M530.1,126.3c0,12.5-6.2,19.4-17.4,19.4s-17.5-6.9-17.5-19.4,6.2-19.4,17.5-19.4S530.1,113.8,530.1,126.3Zm-22,0c0,7.7,1.2,10.3,4.6,10.3s4.5-2.6,4.5-10.3-1.1-10.3-4.5-10.3S508.1,118.5,508.1,126.3Z" style="fill:#76cbe4"/><path d="M549.3,107.2v38.1H536.7V117.2H530v-10Z" style="fill:#76cbe4"/><path d="M567.5,136.6c4.9,0,7.4-2.5,7.4-7.1a10.2,10.2,0,0,1-7.8,3.1c-7.2,0-12-5.1-12-12.6s5.8-13.3,14.5-13.3c10.4,0,16.7,7.4,16.7,19.1s-7.1,20.1-18.1,20.1a24.7,24.7,0,0,1-12.6-3.4l4.5-8.4A11.1,11.1,0,0,0,567.5,136.6Zm-1.2-16.5c0,2.4,1.2,3.8,3.6,3.8s3.9-1.4,3.9-3.9a3.4,3.4,0,0,0-3.8-3.8C567.5,116.2,566.3,117.5,566.3,120.1Z" style="fill:#76cbe4"/><path d="M53.6,101.9h-.1C53.6,101.8,53.6,101.8,53.6,101.9Z" style="fill:#243147"/><path d="M161.8,58.7h0c0-.1,0-.1-.1-.2v-.3a.3.3,0,0,1-.1-.2.3.3,0,0,0-.1-.2c0-.1-.1-.1-.1-.2s-.1-.1-.1-.2l-.2-.2h-.2a.1.1,0,0,1-.1-.1h-.3c0-.1-.1-.1-.2-.1s-.1-.1-.2-.1h-7.8v-10a2.5,2.5,0,0,0-5,0v10h-5.6v-10a2.5,2.5,0,0,0-5,0v10h-7.2a2.4,2.4,0,0,0-2.3,2.3l-1.8,23.8V67.6a2.5,2.5,0,0,0-2.5-2.5h-8.6V20a2.5,2.5,0,0,0-2.5-2.5h-9.1V5.3a2.5,2.5,0,1,0-5,0V17.5H89.4A2.5,2.5,0,0,0,86.9,20V88.6h-5V77.4a2.3,2.3,0,0,0-.4-1.4,4.2,4.2,0,0,0-.4-1.2L65.5,52.4a2.6,2.6,0,0,0-2.8-1A2.5,2.5,0,0,0,61,53.8V99a2.6,2.6,0,0,0,1.7,2.4h.8a2.4,2.4,0,0,0,2-1.1L76.9,83.7v58.2h-33V98.4h0V92.5h0V83.7l11.4,16.7a2.4,2.4,0,0,0,2,1.1h.8A2.6,2.6,0,0,0,59.8,99V53.8a2.5,2.5,0,0,0-1.7-2.4,2.6,2.6,0,0,0-2.8,1L39.7,74.8a2.5,2.5,0,0,0-.4,1.2,2.3,2.3,0,0,0-.4,1.4V90.3A25.6,25.6,0,0,0,31,89.1a26.3,26.3,0,0,0-13.3,49h0l-2.4,5.3a2.3,2.3,0,0,0,.2,2.4,2.4,2.4,0,0,0,2.1,1.1H165.7a2.5,2.5,0,0,0,1.8-.8,2.6,2.6,0,0,0,.7-1.9ZM66,90.9V61.8L76,76.2ZM54.8,61.8V90.9l-10-14.7ZM139.2,137a4.9,4.9,0,0,1-4.9,4.9h-.6a4.4,4.4,0,0,1-2.7-1.4,11.9,11.9,0,0,0-4.7-2.7H126l-.6-.2a32.7,32.7,0,0,0-4.1-.5h-1.8c-6.8,0-9.2,1.6-11.4,3.5a4.4,4.4,0,0,1-2.8,1.4h-.5a4.9,4.9,0,0,1-4.9-4.9,19.7,19.7,0,0,1,19.6-19.7h.9l2.4.2,2.6.6,2.3.9a22.5,22.5,0,0,1,5.4,3.7,20.2,20.2,0,0,1,3.2,3.9A19.9,19.9,0,0,1,139.2,137Zm-7.5-71.8,9.6,11.9L129.8,91.4Zm-3.6,48.7.9-12.6,12.1,12.9-4.6,4.9A24.2,24.2,0,0,0,128.1,113.9Zm3.6-17,12.8-15.8,12.8,15.8-12.8,13.7Zm25.6-31.6,1.9,26L147.7,77.1Zm2.7,36.1,2,27.9-14.1-15.1ZM139.2,61.3h14.9l-9.6,11.8L135,61.3ZM9.9,117.9H22l-10.4,6.3A19.6,19.6,0,0,1,9.9,117.9Zm1.6-11.2,10.6,6.2H9.9A21.8,21.8,0,0,1,11.5,106.7Zm17,20v9.9a27.1,27.1,0,0,1-4.1-.9Zm5,1.3,3.3,7.9-3.3.7Zm5.4-3.7-1.4-2.5,1.4.8Zm-.8-16.1.8-1.3v.9Zm.8-11.3-5.4,9.2V94.2a19.5,19.5,0,0,1,5.4,1.4ZM28.5,94.2v11.6L22.9,95.7A24.2,24.2,0,0,1,28.5,94.2Zm-10,4,5.7,10.1-10.1-5.9A21.9,21.9,0,0,1,18.5,98.2Zm-4.3,30.2,9.8-5.8-5.8,9.8A21.6,21.6,0,0,1,14.2,128.4Zm8.1,11.8a25.3,25.3,0,0,0,8.7,1.5,28.8,28.8,0,0,0,7.8-1.1v1.3H21.5Zm59.6,1.7V93.6h7.5a2.5,2.5,0,0,0,2.5-2.5V22.5h17.4V67.6a2.5,2.5,0,0,0,2.5,2.5h8.6v42.3h-.9A24.7,24.7,0,0,0,94.9,137a9,9,0,0,0,1.3,4.9Zm61,0a9,9,0,0,0,1.3-4.9,24.6,24.6,0,0,0-4.4-14.1l4.7-5,18.1,19.3.4,4.7Z" style="fill:#243147"/></svg>